HIERARCHY
ROOT RootJoint
{
    OFFSET   0.000000   0.000000   0.000000
    CHANNELS 6 Xposition Yposition Zposition Xrotation Yrotation Zrotation
    JOINT pelvis_lowerback
    {
        OFFSET   0.000000   0.093605   0.000000
        CHANNELS 3 Xrotation Yrotation Zrotation
        JOINT lowerback_torso
        {
            OFFSET   0.000000   0.100000   0.000000
            CHANNELS 3 Xrotation Yrotation Zrotation
            JOINT torso_head
            {
                OFFSET   0.000000   0.282350   0.000000
                CHANNELS 3 Xrotation Yrotation Zrotation
                End Site
                {
                    OFFSET   0.000000   0.192650   0.000000
                }
            }
            JOINT rTorso_Clavicle
            {
                OFFSET  -0.001000   0.157500   0.000000
                CHANNELS 3 Xrotation Yrotation Zrotation
                JOINT rShoulder
                {
                    OFFSET  -0.117647   0.000000   0.000000
                    CHANNELS 3 Xrotation Yrotation Zrotation
                    JOINT rElbow
                    {
                        OFFSET  -0.245000   0.000000   0.000000
                        CHANNELS 3 Xrotation Yrotation Zrotation
                        JOINT rWrist
                        {
                            OFFSET  -0.240000   0.000000   0.000000
                            CHANNELS 3 Xrotation Yrotation Zrotation
                            End Site
                            {
                                OFFSET  -0.116353  -0.002500   0.000000
                            }
                        }
                    }
                }
            }
            JOINT lTorso_Clavicle
            {
                OFFSET   0.001000   0.157500   0.000000
                CHANNELS 3 Xrotation Yrotation Zrotation
                JOINT lShoulder
                {
                    OFFSET   0.117647   0.000000   0.000000
                    CHANNELS 3 Xrotation Yrotation Zrotation
                    JOINT lElbow
                    {
                        OFFSET   0.245000   0.000000   0.000000
                        CHANNELS 3 Xrotation Yrotation Zrotation
                        JOINT lWrist
                        {
                            OFFSET   0.240000   0.000000   0.000000
                            CHANNELS 3 Xrotation Yrotation Zrotation
                            End Site
                            {
                                OFFSET   0.116353  -0.002500   0.000000
                            }
                        }
                    }
                }
            }
        }
    }
    JOINT rHip
    {
        OFFSET  -0.100000  -0.051395   0.000000
        CHANNELS 3 Xrotation Yrotation Zrotation
        JOINT rKnee
        {
            OFFSET   0.000000  -0.410000   0.000000
            CHANNELS 3 Xrotation Yrotation Zrotation
            JOINT rAnkle
            {
                OFFSET   0.000000  -0.390000   0.000000
                CHANNELS 3 Xrotation Yrotation Zrotation
                JOINT rToeJoint
                {
                    OFFSET   0.000000  -0.050000   0.130000
                    CHANNELS 3 Xrotation Yrotation Zrotation
                    End Site
                    {
                        OFFSET  -0.010000   0.002000   0.060000
                    }
                }
            }
        }
    }
    JOINT lHip
    {
        OFFSET   0.100000  -0.051395   0.000000
        CHANNELS 3 Xrotation Yrotation Zrotation
        JOINT lKnee
        {
            OFFSET   0.000000  -0.410000   0.000000
            CHANNELS 3 Xrotation Yrotation Zrotation
            JOINT lAnkle
            {
                OFFSET   0.000000  -0.390000   0.000000
                CHANNELS 3 Xrotation Yrotation Zrotation
                JOINT lToeJoint
                {
                    OFFSET   0.000000  -0.050000   0.130000
                    CHANNELS 3 Xrotation Yrotation Zrotation
                    End Site
                    {
                        OFFSET   0.010000   0.002000   0.060000
                    }
                }
            }
        }
    }
}
MOTION
Frames: 8
Frame Time:   0.008333
 -2.376719   0.925631   3.975860   0.000000   0.000000   0.000000   0.000000   0.000000   0.000000   0.000000   0.000000   0.000000   0.000000   0.000000   0.000000   0.000000   0.000000   0.000000   0.000000   0.000000   0.000000   0.000000   0.000000   0.000000   0.000000   0.000000   0.000000   0.000000   0.000000   0.000000   0.000000   0.000000   0.000000   0.000000   0.000000   0.000000   0.000000   0.000000   0.000000   0.000000   0.000000   0.000000   0.000000   0.000000   0.000000   0.000000   0.000000   0.000000   0.000000   0.000000   0.000000   0.000000   0.000000   0.000000   0.000000   0.000000   0.000000   0.000000   0.000000   0.000000   0.000000   0.000000   0.000000
 -2.376830   0.925075   3.974472  -0.529349  -0.211636  -0.098882   0.674807   0.142496   0.099090   0.384373  -0.226561  -0.052728  -0.044680  -0.403349   0.248552  -0.093199  -0.021745  -1.453297   0.198431   0.098503   3.036304   0.047345   3.490713  -0.020786  -0.228474  -1.927358  -1.000925   0.243591   0.480168   1.078212   0.249976   0.381315  -2.336358   0.041531  -3.563837   0.032736  -0.059038   1.493809   1.082578  -0.005738  -0.130462  -0.083918   1.181434   0.001832  -0.003555  -1.074115  -0.373501  -0.217594   0.225028   0.000784  -0.001407  -0.301612  -0.059990   0.346038   2.329148  -0.005151  -0.005370  -1.334566   0.351685  -0.025832   0.085739  -0.000164   0.000060
 -2.377018   0.924281   3.972427  -1.207956  -0.637415  -0.218592   1.456132   0.355437   0.186805   0.956899  -0.367682  -0.103154  -0.016647  -0.804591   0.499501  -0.166764   0.202398  -2.587647   0.368526   0.484432   6.303579   0.107643   7.147539  -0.044387  -0.433520  -2.773832  -1.475079   0.481382   0.823526   1.830032   0.491728   0.585574  -4.761597   0.094274  -7.257568   0.064837  -0.086896   2.028169   1.707866  -0.000311  -0.269873  -0.326770   2.419049   0.005033  -0.009149  -2.076347  -0.726898  -0.428755   0.401525   0.001485  -0.002555  -0.543451  -0.109168   0.897582   4.804415  -0.014340  -0.013545  -2.563652   0.687472  -0.038084   0.180399  -0.000487  -0.000056
 -2.377245   0.923092   3.969942  -1.904067  -1.155665  -0.344923   2.265215   0.594566   0.254932   1.575222  -0.451261  -0.158371   0.024703  -1.181618   0.733759  -0.227086   0.598339  -3.462811   0.491549   1.033508   9.656124   0.171729  10.865954  -0.067062  -0.615842  -3.117659  -1.614853   0.705271   1.018590   2.340221   0.715330   0.665350  -7.169109   0.149263 -10.995549   0.093082  -0.104778   2.173720   2.001264  -0.034916  -0.411833  -0.718303   3.571040   0.008545  -0.014409  -3.012348  -1.056940  -0.633176   0.563772   0.002157  -0.003481  -0.775104  -0.156876   1.595348   7.156106  -0.024965  -0.020219  -3.706252   1.002815  -0.040903   0.281175  -0.000916  -0.000229
 -2.377742   0.922505   3.967154  -2.629014  -1.904160  -0.570405   3.118957   0.924224   0.343112   2.222563  -0.434796  -0.179042   0.064686  -1.532006   0.950956  -0.275953   1.138749  -4.029081   0.557918   1.677639  12.951718   0.236438  14.630063  -0.088769  -0.782721  -3.161851  -1.473507   0.916021   1.116595   2.611660   0.920376   0.666689  -9.547758   0.205448 -14.757228   0.118645  -0.118695   2.139608   2.077815  -0.142331  -0.723524  -0.583062   4.786413   0.006384  -0.023122  -3.682824  -1.505772  -0.576999   0.721119   0.001685  -0.004890  -1.017764  -0.249015   2.379787   9.181814  -0.032648  -0.028060  -4.826808   1.224483  -0.088560   0.206983  -0.000365   0.000173
 -2.378018   0.922062   3.964337  -3.340057  -2.614767  -0.704499   3.957456   1.218216   0.364500   2.870694  -0.416084  -0.231913   0.105063  -1.861056   1.146375  -0.313372   1.737999  -4.421008   0.575821   2.352691  16.133712   0.295808  18.420362  -0.108198  -0.940718  -3.036303  -1.090856   1.116061   1.126741   2.742972   1.108080   0.599039 -11.862076   0.257367 -18.539742   0.140940  -0.131358   1.981223   1.933617  -0.215785  -0.952130  -0.532408   5.916683   0.004243  -0.028032  -4.363050  -1.841996  -0.667718   0.863566   0.001450  -0.005530  -1.280605  -0.298260   3.143753  11.184353  -0.040407  -0.031703  -5.820107   1.504056  -0.074682   0.307306  -0.000920  -0.000198
 -2.378035   0.921678   3.961558  -4.014200  -3.282594  -0.781897   4.770002   1.489032   0.365428   3.500990  -0.402525  -0.301721   0.141326  -2.168775   1.324664  -0.342333   2.357845  -4.698412   0.552046   3.026479  19.169431   0.348238  22.225178  -0.125449  -1.093726  -2.825178  -0.567028   1.304937   1.073213   2.770855   1.278657   0.482229 -14.090829   0.303172 -22.337798   0.160574  -0.144662   1.738786   1.637317  -0.287003  -1.155310  -0.565521   6.973613   0.002573  -0.030692  -5.004463  -2.141867  -0.775704   0.989149   0.001276  -0.005737  -1.544913  -0.343583   3.913257  13.061240  -0.047035  -0.032236  -6.745664   1.766906  -0.057052   0.406816  -0.001427  -0.000438
 -2.377709   0.921029   3.958944  -4.277631  -3.999236  -0.907758   5.127741   1.707014   0.503054   3.944736  -0.235941  -0.354519   0.380362  -2.475453   1.458860  -0.322338   2.870801  -5.396651   0.923761   3.922778  22.361070   0.394414  26.032293  -0.152419  -1.258781  -2.644980   0.104386   1.473616   1.094217   3.230593   0.949069   0.066662 -16.557909   0.323674 -26.090671   0.153226  -0.218191   1.668547   0.816173  -0.803621  -1.349128  -0.555838   8.015230   0.001230  -0.033002  -5.384214  -2.399865  -0.908532   1.126963   0.001202  -0.006021  -1.824985  -0.371454   4.753020  14.020134  -0.045320  -0.029348  -7.509230   2.311985  -0.004415   0.576537  -0.002370  -0.000442
